<svg width="21" height="21" viewBox="0 0 21 21" fill="none" xmlns="http://www.w3.org/2000/svg">
<path d="M15.9785 2.29102H5.98242C5.06231 2.29102 4.31641 3.03692 4.31641 3.95703V17.2852C4.31641 18.2053 5.06231 18.9512 5.98242 18.9512H15.9785C16.8986 18.9512 17.6445 18.2053 17.6445 17.2852V3.95703C17.6445 3.03692 16.8986 2.29102 15.9785 2.29102Z" stroke="#374151" stroke-width="2" stroke-linecap="round" stroke-linejoin="round"/>
<path d="M8.48145 18.9512V15.6191H13.4795V18.9512" stroke="#374151" stroke-width="2" stroke-linecap="round" stroke-linejoin="round"/>
<path d="M7.64844 5.62305H7.65677" stroke="#374151" stroke-width="2" stroke-linecap="round" stroke-linejoin="round"/>
<path d="M14.3125 5.62305H14.3208" stroke="#374151" stroke-width="2" stroke-linecap="round" stroke-linejoin="round"/>
<path d="M10.9805 5.62305H10.9888" stroke="#374151" stroke-width="2" stroke-linecap="round" stroke-linejoin="round"/>
<path d="M10.9805 8.95508H10.9888" stroke="#374151" stroke-width="2" stroke-linecap="round" stroke-linejoin="round"/>
<path d="M10.9805 12.2871H10.9888" stroke="#374151" stroke-width="2" stroke-linecap="round" stroke-linejoin="round"/>
<path d="M14.3125 8.95508H14.3208" stroke="#374151" stroke-width="2" stroke-linecap="round" stroke-linejoin="round"/>
<path d="M14.3125 12.2871H14.3208" stroke="#374151" stroke-width="2" stroke-linecap="round" stroke-linejoin="round"/>
<path d="M7.64844 8.95508H7.65677" stroke="#374151" stroke-width="2" stroke-linecap="round" stroke-linejoin="round"/>
<path d="M7.64844 12.2871H7.65677" stroke="#374151" stroke-width="2" stroke-linecap="round" stroke-linejoin="round"/>
</svg>
