<svg width="16" height="17" viewBox="0 0 16 17" fill="none" xmlns="http://www.w3.org/2000/svg">
<g clip-path="url(#clip0_39_3969)">
<path d="M8 2.5H3.33333C2.97971 2.5 2.64057 2.64048 2.39052 2.89052C2.14048 3.14057 2 3.47971 2 3.83333V13.1667C2 13.5203 2.14048 13.8594 2.39052 14.1095C2.64057 14.3595 2.97971 14.5 3.33333 14.5H12.6667C13.0203 14.5 13.3594 14.3595 13.6095 14.1095C13.8595 13.8594 14 13.5203 14 13.1667V8.5" stroke="#4F46E5" stroke-width="2" stroke-linecap="round" stroke-linejoin="round"/>
<path d="M12.25 2.25003C12.5152 1.98481 12.8749 1.83582 13.25 1.83582C13.6251 1.83582 13.9848 1.98481 14.25 2.25003C14.5152 2.51525 14.6642 2.87496 14.6642 3.25003C14.6642 3.6251 14.5152 3.98481 14.25 4.25003L8.24136 10.2594C8.08305 10.4175 7.88749 10.5333 7.67269 10.596L5.75735 11.156C5.69999 11.1728 5.63918 11.1738 5.58129 11.1589C5.52341 11.1441 5.47057 11.114 5.42832 11.0717C5.38607 11.0295 5.35595 10.9766 5.34112 10.9188C5.32629 10.8609 5.32729 10.8001 5.34402 10.7427L5.90402 8.82736C5.96704 8.61273 6.08304 8.4174 6.24136 8.25936L12.25 2.25003Z" stroke="#4F46E5" stroke-width="2" stroke-linecap="round" stroke-linejoin="round"/>
</g>
<defs>
<clipPath id="clip0_39_3969">
<rect width="16" height="16" fill="white" transform="translate(0 0.5)"/>
</clipPath>
</defs>
</svg>
