<svg width="21" height="21" viewBox="0 0 21 21" fill="none" xmlns="http://www.w3.org/2000/svg">
<path d="M10.9727 3.01465C9.97849 4.00882 9.41997 5.35721 9.41997 6.76318C9.41997 8.16916 9.97849 9.51755 10.9727 10.5117C11.9668 11.5059 13.3152 12.0644 14.7212 12.0644C16.1272 12.0644 17.4756 11.5059 18.4697 10.5117C18.4697 11.9945 18.03 13.444 17.2062 14.6769C16.3825 15.9098 15.2116 16.8707 13.8417 17.4381C12.4718 18.0055 10.9643 18.154 9.51005 17.8647C8.05576 17.5755 6.71991 16.8614 5.67143 15.8129C4.62295 14.7645 3.90892 13.4286 3.61964 11.9743C3.33037 10.52 3.47883 9.01262 4.04627 7.64271C4.61371 6.2728 5.57462 5.10192 6.80751 4.27813C8.0404 3.45434 9.48988 3.01465 10.9727 3.01465Z" stroke="#6B7280" stroke-width="2" stroke-linecap="round" stroke-linejoin="round"/>
</svg>
