<svg width="20" height="20" viewBox="0 0 20 20" fill="none" xmlns="http://www.w3.org/2000/svg">
<path d="M11.755 4.62749C11.9863 4.74309 12.2414 4.80327 12.5 4.80327C12.7586 4.80327 13.0137 4.74309 13.245 4.62749L16.2942 3.10249C16.4213 3.03896 16.5626 3.009 16.7046 3.01547C16.8466 3.02193 16.9845 3.06461 17.1054 3.13944C17.2262 3.21426 17.3259 3.31875 17.395 3.44298C17.4641 3.5672 17.5002 3.70703 17.5 3.84916V14.4858C17.4999 14.6405 17.4568 14.7922 17.3754 14.9238C17.294 15.0553 17.1776 15.1617 17.0392 15.2308L13.245 17.1283C13.0137 17.2439 12.7586 17.3041 12.5 17.3041C12.2414 17.3041 11.9863 17.2439 11.755 17.1283L8.245 15.3733C8.01367 15.2577 7.75861 15.1975 7.5 15.1975C7.24139 15.1975 6.98634 15.2577 6.755 15.3733L3.70584 16.8983C3.57863 16.9619 3.43727 16.9918 3.29522 16.9853C3.15316 16.9788 3.01513 16.9361 2.89427 16.8612C2.7734 16.7862 2.67372 16.6816 2.60471 16.5573C2.5357 16.433 2.49965 16.293 2.5 16.1508V5.51499C2.50009 5.36027 2.54324 5.20863 2.62463 5.07705C2.70602 4.94547 2.82244 4.83915 2.96084 4.76999L6.755 2.87249C6.98634 2.7569 7.24139 2.69672 7.5 2.69672C7.75861 2.69672 8.01367 2.7569 8.245 2.87249L11.755 4.62749Z" stroke="#374151" stroke-width="2" stroke-linecap="round" stroke-linejoin="round"/>
<path d="M12.5 4.80334V17.3033" stroke="#374151" stroke-width="2" stroke-linecap="round" stroke-linejoin="round"/>
<path d="M7.5 2.69666V15.1967" stroke="#374151" stroke-width="2" stroke-linecap="round" stroke-linejoin="round"/>
</svg>
