<svg width="20" height="20" viewBox="0 0 20 20" fill="none" xmlns="http://www.w3.org/2000/svg">
<path d="M1.66667 7.50002C2.32971 7.50002 2.9656 7.76341 3.43444 8.23225C3.90328 8.70109 4.16667 9.33698 4.16667 10C4.16667 10.6631 3.90328 11.2989 3.43444 11.7678C2.9656 12.2366 2.32971 12.5 1.66667 12.5V14.1667C1.66667 14.6087 1.84227 15.0326 2.15483 15.3452C2.46739 15.6578 2.89131 15.8334 3.33334 15.8334H16.6667C17.1087 15.8334 17.5326 15.6578 17.8452 15.3452C18.1577 15.0326 18.3333 14.6087 18.3333 14.1667V12.5C17.6703 12.5 17.0344 12.2366 16.5656 11.7678C16.0967 11.2989 15.8333 10.6631 15.8333 10C15.8333 9.33698 16.0967 8.70109 16.5656 8.23225C17.0344 7.76341 17.6703 7.50002 18.3333 7.50002V5.83335C18.3333 5.39133 18.1577 4.9674 17.8452 4.65484C17.5326 4.34228 17.1087 4.16669 16.6667 4.16669H3.33334C2.89131 4.16669 2.46739 4.34228 2.15483 4.65484C1.84227 4.9674 1.66667 5.39133 1.66667 5.83335V7.50002Z" stroke="#374151" stroke-width="2" stroke-linecap="round" stroke-linejoin="round"/>
<path d="M10.8333 4.16669V5.83335" stroke="#374151" stroke-width="2" stroke-linecap="round" stroke-linejoin="round"/>
<path d="M10.8333 14.1667V15.8334" stroke="#374151" stroke-width="2" stroke-linecap="round" stroke-linejoin="round"/>
<path d="M10.8333 9.16669V10.8334" stroke="#374151" stroke-width="2" stroke-linecap="round" stroke-linejoin="round"/>
</svg>
