<svg width="15" height="14" viewBox="0 0 15 14" fill="none" xmlns="http://www.w3.org/2000/svg">
<g clip-path="url(#clip0_1_1701)">
<path d="M2.1355 5.24984C2.59963 5.24984 3.04475 5.43421 3.37293 5.7624C3.70112 6.09059 3.8855 6.53571 3.8855 6.99984C3.8855 7.46397 3.70112 7.90909 3.37293 8.23727C3.04475 8.56546 2.59963 8.74984 2.1355 8.74984V9.9165C2.1355 10.2259 2.25841 10.5227 2.47721 10.7415C2.696 10.9603 2.99275 11.0832 3.30216 11.0832H12.6355C12.9449 11.0832 13.2417 10.9603 13.4605 10.7415C13.6792 10.5227 13.8022 10.2259 13.8022 9.9165V8.74984C13.338 8.74984 12.8929 8.56546 12.5647 8.23727C12.2365 7.90909 12.0522 7.46397 12.0522 6.99984C12.0522 6.53571 12.2365 6.09059 12.5647 5.7624C12.8929 5.43421 13.338 5.24984 13.8022 5.24984V4.08317C13.8022 3.77375 13.6792 3.47701 13.4605 3.25821C13.2417 3.03942 12.9449 2.9165 12.6355 2.9165H3.30216C2.99275 2.9165 2.696 3.03942 2.47721 3.25821C2.25841 3.47701 2.1355 3.77375 2.1355 4.08317V5.24984Z" stroke="#6B7280" stroke-width="2" stroke-linecap="round" stroke-linejoin="round"/>
<path d="M8.552 2.9165V4.08317" stroke="#6B7280" stroke-width="2" stroke-linecap="round" stroke-linejoin="round"/>
<path d="M8.552 9.9165V11.0832" stroke="#6B7280" stroke-width="2" stroke-linecap="round" stroke-linejoin="round"/>
<path d="M8.552 6.4165V7.58317" stroke="#6B7280" stroke-width="2" stroke-linecap="round" stroke-linejoin="round"/>
</g>
<defs>
<clipPath id="clip0_1_1701">
<rect width="14" height="14" fill="white" transform="translate(0.96875)"/>
</clipPath>
</defs>
</svg>
